<svg xmlns="http://www.w3.org/2000/svg" width="24" height="24" viewBox="0 0 24 24"><path fill="currentColor" d="M20.496 9.026c-2.183-.93-5.116-1.53-8.25-1.695-.5-.03-.987-.04-1.45-.04 2.318-2.83 4.802-4.73 6.437-4.79.322-.013.595.055.813.196.706.458.905 1.768.545 3.59-.04.25.12.493.36.54.25.05.49-.11.54-.36.45-2.28.12-3.846-.94-4.538-.38-.248-.84-.365-1.35-.346-2.05.077-4.94 2.3-7.59 5.72-1.154.035-2.24.13-3.232.287-.646-2.897-.39-4.977.594-5.477.138-.073.285-.11.457-.124.697-.054 1.66.395 2.71 1.27.194.16.486.14.646-.06.163-.195.134-.48-.06-.645C9.466 1.51 8.304 1 7.354 1.07c-.286.025-.556.098-.803.22-1.19.607-1.67 2.327-1.37 4.838.07.52.16 1.062.29 1.62C2.19 8.404.1 9.718.01 11.372c-.06 1.17.865 2.284 2.68 3.222.224.115.502.03.62-.2.114-.224.03-.5-.2-.616C1.66 13.032.88 12.19.927 11.42c.05-1.08 1.772-2.19 4.76-2.78.27.994.62 2.032 1.05 3.09-1.018 1.888-1.756 3.747-2.137 5.4-.56 2.465-.26 4.22.86 4.948.36.234.78.35 1.247.35.935 0 2.067-.46 3.347-1.372.21-.15.256-.435.11-.64-.147-.206-.433-.256-.64-.106-1.544 1.103-2.844 1.472-3.562 1.003-.76-.495-.926-1.943-.46-3.976.32-1.386.907-2.93 1.708-4.52.2.438.41.876.63 1.313 1.425 2.796 3.17 5.227 4.91 6.845 1.386 1.29 2.674 1.963 3.735 1.963.35 0 .68-.075.976-.223 1.145-.585 1.64-2.21 1.398-4.575-.224-2.213-1.06-4.91-2.354-7.6.146-.088.29-.176.432-.267 2.42-1.584 3.42-3.228 2.875-4.74-.455-1.27-1.958-1.91-3.87-1.985zM7.434 14.075c.2-.398.73-1.554.73-1.554.32.61.66 1.19 1.02 1.74-.68.11-1.324.17-1.92.17-.2 0-.397-.01-.592-.02.35-.32.67-.67.95-1.04l-.19.7zm9.33.414c.19 1.956-.29 3.26-.998 3.625-.708.365-1.85-.084-3.05-1.2-1.63-1.52-3.268-3.792-4.628-6.44-.138-.26-.27-.53-.4-.8.5-.04 1.01-.09 1.53-.15 2.322-.305 4.52-.957 6.82-2.106 1.13 2.466 1.84 4.924 2.04 6.89.06.58.08 1.16.069 1.72z"/></svg>